<svg xmlns="http://www.w3.org/2000/svg" width="48" height="48" viewBox="0 0 48 48">
  <g id="グループ_30" data-name="グループ 30" transform="translate(-486 -820)">
    <g id="パス_14" data-name="パス 14" transform="translate(486 820)" fill="none">
      <path d="M24,0A24,24,0,1,1,0,24,24,24,0,0,1,24,0Z" stroke="none"/>
      <path d="M 24 1 C 20.89458084106445 1 17.8825798034668 1.607978820800781 15.04766845703125 2.807041168212891 C 12.3089599609375 3.965419769287109 9.849140167236328 5.623939514160156 7.736541748046875 7.736541748046875 C 5.623939514160156 9.849140167236328 3.965419769287109 12.3089599609375 2.807041168212891 15.04766845703125 C 1.607978820800781 17.8825798034668 1 20.89458084106445 1 24 C 1 27.10541915893555 1.607978820800781 30.1174201965332 2.807041168212891 32.95233154296875 C 3.965419769287109 35.6910400390625 5.623939514160156 38.15085983276367 7.736541748046875 40.26345825195312 C 9.849140167236328 42.37606048583984 12.3089599609375 44.03458023071289 15.04766845703125 45.19295883178711 C 17.8825798034668 46.39202117919922 20.89458084106445 47 24 47 C 27.10541915893555 47 30.1174201965332 46.39202117919922 32.95233154296875 45.19295883178711 C 35.6910400390625 44.03458023071289 38.15085983276367 42.37606048583984 40.26345825195312 40.26345825195312 C 42.37606048583984 38.15085983276367 44.03458023071289 35.6910400390625 45.19295883178711 32.95233154296875 C 46.39202117919922 30.1174201965332 47 27.10541915893555 47 24 C 47 20.89458084106445 46.39202117919922 17.8825798034668 45.19295883178711 15.04766845703125 C 44.03458023071289 12.3089599609375 42.37606048583984 9.849140167236328 40.26345825195312 7.736541748046875 C 38.15085983276367 5.623939514160156 35.6910400390625 3.965419769287109 32.95233154296875 2.807041168212891 C 30.1174201965332 1.607978820800781 27.10541915893555 1 24 1 M 24 0 C 37.25484085083008 0 48 10.74515914916992 48 24 C 48 37.25484085083008 37.25484085083008 48 24 48 C 10.74515914916992 48 0 37.25484085083008 0 24 C 0 10.74515914916992 10.74515914916992 0 24 0 Z" stroke="none" fill="#0583f2"/>
    </g>
    <g id="グループ_7" data-name="グループ 7" transform="translate(-334 1354) rotate(-90)">
      <line id="線_3" data-name="線 3" x2="5" y2="5" transform="translate(507.5 839.5)" fill="none" stroke="#0583f2" stroke-width="1"/>
      <line id="線_4" data-name="線 4" y1="5" x2="5" transform="translate(507.5 844.5)" fill="none" stroke="#0583f2" stroke-width="1"/>
    </g>
  </g>
</svg>
