<svg xmlns="http://www.w3.org/2000/svg" width="17.234" height="14" viewBox="0 0 17.234 14">
  <g id="twitterのフリーアイコン素材" transform="translate(2)">
    <path id="パス_4" data-name="パス 4" d="M163.027,165.5l.02-.028a7.059,7.059,0,0,1-1.6.489c-.133.02-.267.037-.4.048a3.545,3.545,0,0,0,1.324-1.459,3.815,3.815,0,0,0,.211-.46l-.021.011c0-.009.008-.017.011-.027a7.079,7.079,0,0,1-2.244.858,3.532,3.532,0,0,0-6.034,3.158c0,.022,0,.043.008.065a10.018,10.018,0,0,1-6.616-2.956c-.227-.232-.446-.472-.65-.727l0,.005-.013-.014a3.527,3.527,0,0,0,.633,4.343,3.792,3.792,0,0,0,.435.373,3.522,3.522,0,0,1-1.575-.44c0,.015,0,.03,0,.045a3.527,3.527,0,0,0,2.062,3.2,3.591,3.591,0,0,0,.742.27,3.538,3.538,0,0,1-.9.118,3.492,3.492,0,0,1-.587-.056c-.02-.005-.041-.007-.06-.013l0,.008-.021,0a3.541,3.541,0,0,0,2.736,2.4,3.679,3.679,0,0,0,.551.067,7.091,7.091,0,0,1-4.374,1.5c-.229,0-.454-.019-.678-.04-.052-.009-.105-.013-.156-.025l.03.018-.04,0a10,10,0,0,0,5.418,1.588,9.672,9.672,0,0,0,7.97-3.906l.017-.022c.162-.217.31-.441.453-.669.029-.046.062-.091.09-.138.132-.217.251-.44.366-.665.029-.056.061-.11.089-.166q.2-.41.364-.832l0-.01a10.189,10.189,0,0,0,.7-3.649q0-.23-.01-.457a7.18,7.18,0,0,0,1.454-1.409c.108-.132.216-.266.317-.4Z" transform="translate(-147.82 -163.811)" fill="#fff"/>
  </g>
</svg>
