<svg xmlns="http://www.w3.org/2000/svg" width="182.7" height="197.7" viewBox="0 0 182.7 197.7">
  <path id="パス_27" data-name="パス 27" d="M98.7.9l1.2-11.7q15.3-1.2,21-3.6t5.7-7.8a48.352,48.352,0,0,0-2.7-14.4L114-69.3q-7.2-.3-31.2-.3a254.268,254.268,0,0,0-32.7,2.4L39-36q-2.7,8.1-2.7,11.7,0,6.6,4.2,9.45T54.3-12H71.4l.6,1.2L70.2,2.1Q66.6,1.8,53.7.9T28.5,0Q17.4,0,7.95.3T-4.5.9l2.4-14.1q8.4-.9,13.5-5.85T21.3-36.3L79.8-189.6l18.9-5.1h2.4q1.8,7.2,9.15,33.3t18,61.8Q138.9-63.9,148.8-33.9q3.6,11.1,9.6,15.6t19.2,5.7l.6,1.2L176.1.9q-3.6,0-13.05-.45T144.3,0q-14.4,0-27.75,1.2T99.6,3ZM81.9-81.9q10.8,0,27.9-1.5L86.1-162H84L55.5-81.9Z" transform="translate(4.5 194.7)" fill="rgba(5,131,242,0.1)"/>
</svg>
