<svg xmlns="http://www.w3.org/2000/svg" width="179.28" height="198.24" viewBox="0 0 179.28 198.24">
  <path id="パス_28" data-name="パス 28" d="M156.24-109.92a17.815,17.815,0,0,0,.72-3.84,9.329,9.329,0,0,0-3.12-5.52c-6-6.24-11.76-9.36-17.76-9.36-3.12,0-5.28,1.2-5.28,2.4,0,.72.48,1.68,2.16,2.4,4.08,1.68,7.92,5.04,7.92,9.36a9.949,9.949,0,0,1-.72,3.84c-14.4,1.2-28.56,3.84-40.56,7.92.48-10.8,2.4-22.8,4.56-34.56,12.24-2.16,22.56-4.56,32.4-7.2,11.52-3.12,19.92-6,25.92-8.88,3.36-1.68,4.8-3.36,4.8-6.48,0-4.32-4.8-6.72-9.36-6.72a30.47,30.47,0,0,0-12,3.12c-11.28,5.52-24,9.6-38.64,13.2,2.64-12,4.08-16.08,6.96-18a6.863,6.863,0,0,0,3.6-6c0-4.08-4.32-7.92-8.4-10.56-5.52-3.36-11.52-5.52-16.08-5.52a25.769,25.769,0,0,0-9.6,1.44c-1.44.48-3.12,1.68-3.12,2.88a2.571,2.571,0,0,0,2.4,2.4,29.268,29.268,0,0,1,7.2,1.92c4.8,2.4,6.24,3.6,6.24,8.4,0,2.4-.48,5.52-.72,8.4-.72,6-1.44,10.32-2.4,17.04a126.881,126.881,0,0,1-19.2,1.68c-12.96,0-18-2.4-25.44-9.36-1.2-.96-2.16-1.68-3.36-1.68a1.8,1.8,0,0,0-1.68,1.68,14,14,0,0,0,2.4,6c6,8.88,14.4,14.88,29.52,14.88a141.322,141.322,0,0,0,15.84-.96c-1.68,12.48-2.88,23.76-3.6,37.68A140.763,140.763,0,0,0,60-81.12C43.92-68.64,31.2-49.68,31.2-32.64c0,11.52,4.56,20.4,17.52,20.4,11.28,0,29.28-9.6,45.6-22.8a35.618,35.618,0,0,0,4.08,7.92c2.88,3.84,5.28,6,8.16,6,4.08,0,6.48-2.64,6.48-5.52a17.337,17.337,0,0,0-1.68-6.72c-1.68-3.6-3.36-6.96-5.28-12a287.21,287.21,0,0,0,46.8-58.08c9.36.96,19.2,3.6,27.6,11.28C188.16-84.96,192-77.04,192-61.92c0,19.68-17.52,37.44-32.88,46.08C142.32-6.48,125.76-1.92,108,1.44q-3.6.72-3.6,3.6c0,1.68,1.44,2.88,4.08,2.88,14.4-.48,37.44-5.76,55.2-12.48,26.88-10.32,46.8-30.96,46.8-53.52,0-16.32-6-27.84-18.48-37.44C181.92-103.92,168.24-108.48,156.24-109.92ZM98.88-94.08c11.76-4.56,27.12-8.4,39.12-9.12-8.4,15.12-20.88,33.36-36,47.52C99.36-66.72,98.64-76.08,98.88-94.08Zm-7.92,48C74.88-34.32,63.36-27.12,51.6-27.12c-4.08,0-6.48-2.4-6.48-10.08,0-19.92,24.24-41.76,42.24-51.36C87.12-74.4,87.84-60,90.96-46.08Z" transform="translate(-31.2 190.32)" fill="rgba(5,131,242,0.1)"/>
</svg>
