<svg xmlns="http://www.w3.org/2000/svg" width="240.395" height="118.08" viewBox="0 0 240.395 118.08">
  <path id="パス_29" data-name="パス 29" d="M-232.354-11.04q-4.32,0-6.54-2.4a9.168,9.168,0,0,1-2.22-6.48,9.741,9.741,0,0,1,2.58-7.02,9.251,9.251,0,0,1,7.02-2.7,8.438,8.438,0,0,1,6.42,2.46,8.931,8.931,0,0,1,2.34,6.42,9.615,9.615,0,0,1-2.64,7.02A9.3,9.3,0,0,1-232.354-11.04Zm0-32.76q-4.32,0-6.54-2.4a9.168,9.168,0,0,1-2.22-6.48,9.741,9.741,0,0,1,2.58-7.02,9.251,9.251,0,0,1,7.02-2.7,8.438,8.438,0,0,1,6.42,2.46,8.931,8.931,0,0,1,2.34,6.42,9.615,9.615,0,0,1-2.64,7.02A9.3,9.3,0,0,1-232.354-43.8ZM-215.4-6.24a8.777,8.777,0,0,0,4.02-1.74,5.2,5.2,0,0,0,1.62-2.88,27.885,27.885,0,0,0,.36-5.22V-71.76a13.952,13.952,0,0,0-.54-4.62,2.919,2.919,0,0,0-2.1-1.8,17.645,17.645,0,0,0-5.16-.18l-.48-.48.72-6.36q14.52-1.92,24.24-3.84l.84,2.28q-1.68,3.96-2.7,24.48T-195.6-12.6a7.681,7.681,0,0,0,.84,4.2A3.131,3.131,0,0,0-192-7.2l3.96-.24.36.72L-189,.36l-3.96-.12q-6.72-.24-9.6-.24a127.537,127.537,0,0,0-13.68,1.08Zm74.64,7.68q-5.28,0-8.34-2.34a9.871,9.871,0,0,1-3.66-6.9l-.96-.36a55.82,55.82,0,0,1-7.44,6.54q-3.6,2.58-5.76,2.58a15.458,15.458,0,0,1-11.76-4.98,17.434,17.434,0,0,1-4.68-12.42,10.788,10.788,0,0,1,1.92-6.42,8.851,8.851,0,0,1,5.04-3.54l23.16-5.4.12-2.88q0-5.16-2.76-8.04a9.977,9.977,0,0,0-7.56-2.88,17.927,17.927,0,0,0-7.02,1.62,34.734,34.734,0,0,0-7.02,4.02l-1.08-.48-2.04-7.2q6-3.36,12.6-6.24t9.36-2.88q9.96,0,14.94,4.5a15.173,15.173,0,0,1,4.98,11.82,104.729,104.729,0,0,1-1.08,10.8q-1.32,11.64-1.32,13.92a5.151,5.151,0,0,0,1.2,3.6,4.021,4.021,0,0,0,3.12,1.32,8.125,8.125,0,0,0,3.06-.66,15.318,15.318,0,0,0,2.7-1.38l1.8,2.52a41.508,41.508,0,0,1-5.34,7.38A13.764,13.764,0,0,1-140.76,1.44Zm-21.72-11.88a12.033,12.033,0,0,0,4.26-.96,16.269,16.269,0,0,0,4.38-2.52l.36-11.4-12.84,3.6q-2.88.72-2.88,3.96a7.586,7.586,0,0,0,1.86,5.22A6.184,6.184,0,0,0-162.48-10.44Zm72.12,3.96A7.058,7.058,0,0,0-86.1-8.64a7.627,7.627,0,0,0,1.38-4.56l.36-20.76q0-5.28-1.92-7.86a6.852,6.852,0,0,0-5.88-2.58q-4.56,0-10.56,4.56-1.2,21.6-1.2,27a8.173,8.173,0,0,0,.78,4.2,3.107,3.107,0,0,0,2.82,1.2l3.24-.12.24.48L-98.04.36q-1.32-.12-4.98-.24T-110.64,0q-3.84,0-8.34.3t-5.82.42l.96-7.44q3.48-.36,4.86-1.86t1.38-4.86V-38.88q0-4.2-1.26-5.7t-4.62-1.5h-1.56l-.48-.6.6-6.24q6.84-.96,13.5-2.28t8.58-1.68l.96,1.2a32.669,32.669,0,0,0-.72,3.24,36.076,36.076,0,0,0-.6,5.04l.48.48a90.362,90.362,0,0,1,8.58-6.54q4.86-3.3,7.02-3.3,8.52,0,13.26,4.08t4.74,11.4q0,1.8-.96,12.6-1.2,12.24-1.2,15.72a8.189,8.189,0,0,0,.9,4.44A3.172,3.172,0,0,0-67.56-7.2a20.666,20.666,0,0,0,2.28-.12q1.08-.12,1.44-.12l.24.48L-64.68.36Q-66.12.24-69.9.12T-77.64,0q-2.88,0-7.38.42t-5.94.54ZM-2.28-49.92q-6.36.6-8.88.72l-.48.72A16.93,16.93,0,0,1-6.84-36.6,18.936,18.936,0,0,1-10.2-25.68,22.458,22.458,0,0,1-19.44-18a30.693,30.693,0,0,1-13.2,2.76,32.04,32.04,0,0,1-7.8-.96,14.244,14.244,0,0,0-2.22,2.22,3.109,3.109,0,0,0-.66,1.86q0,2.28,3.48,3.24A78.238,78.238,0,0,0-28.8-7.08q8.04.84,13.2,1.92a22.409,22.409,0,0,1,8.94,3.9A9.37,9.37,0,0,1-2.88,6.72q0,5.64-4.56,10.8a33.208,33.208,0,0,1-11.88,8.34,38.145,38.145,0,0,1-15.36,3.18q-9.6,0-15.36-4.62a14.972,14.972,0,0,1-5.76-12.3q3.12-3.24,12-8.76V2.52a15.973,15.973,0,0,1-8.94-4.14,11.834,11.834,0,0,1-3.42-8.1,57.431,57.431,0,0,1,9.84-8.04v-.72a18.057,18.057,0,0,1-6.72-6.72,18.764,18.764,0,0,1-2.4-9.48A20.712,20.712,0,0,1-52.2-46.02,22.3,22.3,0,0,1-43.32-54,27.566,27.566,0,0,1-30.6-56.88a41.521,41.521,0,0,1,7.08.72,51.1,51.1,0,0,0,5.28.48q4.32-.24,16.8-3.96l.72.48Zm-28.2,26.76a7.951,7.951,0,0,0,6.66-3q2.34-3,2.34-8.64,0-6-2.7-9.6A8.968,8.968,0,0,0-31.8-48a7.887,7.887,0,0,0-6.54,2.94q-2.34,2.94-2.34,8.82t2.7,9.48A8.846,8.846,0,0,0-30.48-23.16ZM-36.36,4.08a13.475,13.475,0,0,0-3.36,4.08,9.715,9.715,0,0,0-1.2,4.56,6.311,6.311,0,0,0,2.82,5.46q2.82,1.98,7.98,1.98a17.964,17.964,0,0,0,9.9-2.58q4.02-2.58,4.02-6.3a3.7,3.7,0,0,0-1.44-3.06q-1.44-1.14-5.58-2.04T-36.36,4.08Z" transform="translate(241.115 89.04)" fill="#fff"/>
</svg>
